<?xml version="1.0" encoding="UTF-8" standalone="no"?>
<!-- Created with Inkscape (http://www.inkscape.org/) -->

<svg
   xmlns:dc="http://purl.org/dc/elements/1.1/"
   xmlns:cc="http://creativecommons.org/ns#"
   xmlns:rdf="http://www.w3.org/1999/02/22-rdf-syntax-ns#"
   xmlns:svg="http://www.w3.org/2000/svg"
   xmlns="http://www.w3.org/2000/svg"
   xmlns:sodipodi="http://sodipodi.sourceforge.net/DTD/sodipodi-0.dtd"
   xmlns:inkscape="http://www.inkscape.org/namespaces/inkscape"
   width="9.1327419mm"
   height="10.544613mm"
   viewBox="0 0 9.132742 10.544613"
   version="1.1"
   id="svg8"
   inkscape:version="0.92.4 (5da689c313, 2019-01-14)"
   sodipodi:docname="spade-small.svg"
   inkscape:export-filename="/home/pauek/Postgrau/GitHub/samples.git/react-native/pokercard/assets/spade-small.png"
   inkscape:export-xdpi="300"
   inkscape:export-ydpi="300">
  <defs
     id="defs2" />
  <sodipodi:namedview
     id="base"
     pagecolor="#ffffff"
     bordercolor="#666666"
     borderopacity="1.0"
     inkscape:pageopacity="0.0"
     inkscape:pageshadow="2"
     inkscape:zoom="2.8"
     inkscape:cx="-96.807773"
     inkscape:cy="-28.820395"
     inkscape:document-units="mm"
     inkscape:current-layer="layer1"
     showgrid="false"
     inkscape:window-width="1864"
     inkscape:window-height="1106"
     inkscape:window-x="284"
     inkscape:window-y="232"
     inkscape:window-maximized="0"
     fit-margin-top="0"
     fit-margin-left="0"
     fit-margin-right="0"
     fit-margin-bottom="0" />
  <metadata
     id="metadata5">
    <rdf:RDF>
      <cc:Work
         rdf:about="">
        <dc:format>image/svg+xml</dc:format>
        <dc:type
           rdf:resource="http://purl.org/dc/dcmitype/StillImage" />
        <dc:title></dc:title>
      </cc:Work>
    </rdf:RDF>
  </metadata>
  <g
     inkscape:label="Layer 1"
     inkscape:groupmode="layer"
     id="layer1"
     transform="translate(-2.318613,-210.56899)">
    <path
       inkscape:connector-curvature="0"
       id="path181"
       d="m 7.013446,210.77593 c 0.143382,0.28435 0.422344,0.65312 1.182749,1.56349 1.522088,1.82229 2.017491,2.45326 2.46036,3.13363 0.281557,0.43257 0.559375,0.96385 0.689299,1.31818 0.104025,0.28369 0.106748,0.30351 0.105276,0.76638 -0.0014,0.43463 -0.0085,0.49278 -0.08333,0.68182 -0.267721,0.67622 -0.763294,1.04816 -1.543238,1.1582 -0.767192,0.10824 -1.421753,-0.27482 -2.21434,-1.29589 -0.153781,-0.19811 -0.287073,-0.3602 -0.296206,-0.3602 -0.03895,0 0.02772,0.44124 0.116684,0.77242 0.262037,0.97527 0.76515,2.22846 1.005129,2.50364 l 0.08371,0.096 H 6.893609 5.267681 l 0.08432,-0.0967 c 0.344719,-0.39531 1.155081,-2.66269 1.122421,-3.14053 l -0.0098,-0.14196 -0.301205,0.36375 c -0.571491,0.69015 -1.049411,1.09035 -1.488797,1.24669 -0.226553,0.0806 -0.659376,0.0856 -0.95812,0.011 -0.884195,-0.22073 -1.397887,-0.88122 -1.397887,-1.79734 0,-0.64331 0.294608,-1.33691 1.006105,-2.36869 0.433088,-0.62805 0.789032,-1.07335 2.407729,-3.01222 0.580182,-0.69493 1.02778,-1.30443 1.100561,-1.49863 0.02282,-0.0609 0.04936,-0.11041 0.05895,-0.10998 0.0095,5.5e-4 0.06422,0.0935 0.121389,0.20692 z"
       style="fill:#000000;stroke-width:0.03120771"
       sodipodi:nodetypes="ccccccccscccccccccccscccccc" />
  </g>
</svg>
