<?xml version="1.0" encoding="UTF-8" standalone="no"?>
<!-- Created with Inkscape (http://www.inkscape.org/) -->

<svg
   xmlns:dc="http://purl.org/dc/elements/1.1/"
   xmlns:cc="http://creativecommons.org/ns#"
   xmlns:rdf="http://www.w3.org/1999/02/22-rdf-syntax-ns#"
   xmlns:svg="http://www.w3.org/2000/svg"
   xmlns="http://www.w3.org/2000/svg"
   xmlns:sodipodi="http://sodipodi.sourceforge.net/DTD/sodipodi-0.dtd"
   xmlns:inkscape="http://www.inkscape.org/namespaces/inkscape"
   width="39.961914mm"
   height="49.372749mm"
   viewBox="0 0 39.961914 49.37275"
   version="1.1"
   id="svg8"
   inkscape:version="0.92.4 (5da689c313, 2019-01-14)"
   sodipodi:docname="spade-big.svg"
   inkscape:export-filename="/home/pauek/Postgrau/GitHub/samples.git/react-native/pokercard/assets/spade-big.png"
   inkscape:export-xdpi="300"
   inkscape:export-ydpi="300">
  <defs
     id="defs2" />
  <sodipodi:namedview
     id="base"
     pagecolor="#ffffff"
     bordercolor="#666666"
     borderopacity="1.0"
     inkscape:pageopacity="0.0"
     inkscape:pageshadow="2"
     inkscape:zoom="0.9899495"
     inkscape:cx="414.23354"
     inkscape:cy="-50.928351"
     inkscape:document-units="mm"
     inkscape:current-layer="layer1"
     showgrid="false"
     inkscape:window-width="1864"
     inkscape:window-height="1106"
     inkscape:window-x="284"
     inkscape:window-y="232"
     inkscape:window-maximized="0"
     fit-margin-top="0"
     fit-margin-left="0"
     fit-margin-right="0"
     fit-margin-bottom="0" />
  <metadata
     id="metadata5">
    <rdf:RDF>
      <cc:Work
         rdf:about="">
        <dc:format>image/svg+xml</dc:format>
        <dc:type
           rdf:resource="http://purl.org/dc/dcmitype/StillImage" />
        <dc:title></dc:title>
      </cc:Work>
    </rdf:RDF>
  </metadata>
  <g
     inkscape:label="Layer 1"
     inkscape:groupmode="layer"
     id="layer1"
     transform="translate(-11.782068,-226.04102)">
    <path
       style="fill:#000000;stroke-width:0.03120771"
       d="m 27.503023,275.39088 c -1.496908,-0.01 -2.732286,-0.0273 -2.74528,-0.0399 -0.0352,-0.034 0.05535,-0.11969 0.510781,-0.48356 0.964588,-0.77067 1.603853,-1.55065 2.401594,-2.93024 0.495815,-0.85746 1.297445,-2.51822 1.728847,-3.58171 0.599538,-1.47797 0.969761,-3.21681 0.927186,-4.35475 -0.02495,-0.66707 -0.133698,-1.00154 -0.434015,-1.335 l -0.1229,-0.13645 -0.77304,0.75393 c -0.771489,0.7524 -1.104049,1.03231 -1.724327,1.45131 -1.175837,0.79428 -2.717808,1.47578 -4.027463,1.78 -1.153368,0.26791 -3.307106,0.33792 -4.234615,0.13764 -1.804024,-0.38953 -3.561366,-1.38147 -4.772116,-2.69362 -0.602782,-0.65326 -1.035565,-1.27164 -1.472323,-2.10368 -0.788091,-1.50134 -0.983284,-2.40189 -0.983284,-4.53658 0,-1.02899 0.03969,-1.35779 0.272213,-2.25496 0.608715,-2.34869 1.764553,-4.88065 3.12844,-6.85311 1.546834,-2.23705 4.069175,-5.31204 7.591422,-9.25474 2.972284,-3.32708 4.160552,-4.8252 6.382654,-8.04698 1.344405,-1.94922 1.845818,-2.85112 2.258185,-4.06181 0.229932,-0.67507 0.287531,-0.8173 0.325982,-0.80493 0.04095,0.0132 0.09347,0.13954 0.407003,0.97931 0.297673,0.79727 0.451719,1.14478 0.841963,1.89937 0.743385,1.43745 1.757186,2.9807 3.132156,4.76788 1.113253,1.447 1.714131,2.15337 4.650092,5.46642 3.155836,3.56116 4.191802,4.77537 5.477193,6.41957 1.778146,2.27451 3.191933,4.52524 4.186923,6.6655 1.013076,2.17917 1.417177,4.1019 1.282612,6.10267 -0.09442,1.40379 -0.363256,2.44676 -0.905369,3.51239 -0.755797,1.4857 -2.076626,2.8941 -3.549695,3.78507 -0.733466,0.44363 -1.663812,0.84057 -2.234248,0.95327 -0.808194,0.15968 -2.061771,0.25847 -2.954631,0.23285 -1.494346,-0.0429 -2.69647,-0.35761 -4.241322,-1.11045 -1.293391,-0.63029 -2.315208,-1.30284 -3.181908,-2.09429 -0.279415,-0.25516 -0.364384,-0.35054 -0.664186,-0.74555 -0.06012,-0.0793 -0.155401,-0.16837 -0.211756,-0.19815 -0.09935,-0.0525 -0.10514,-0.0523 -0.190619,0.009 -0.04849,0.0346 -0.122356,0.12198 -0.164146,0.19419 -0.106296,0.18364 -0.274474,0.67468 -0.342393,0.99968 -0.07662,0.36663 -0.07571,1.16545 0.0017,1.57659 0.440524,2.33695 1.706384,5.27162 3.213171,7.44921 0.649378,0.93847 1.121778,1.46777 1.901458,2.13053 0.218182,0.18546 0.397681,0.34755 0.398888,0.36019 0.0023,0.025 -6.720446,0.0213 -11.090914,-0.006 z m 7.907182,-1.40136 c 0.0067,-0.0195 -0.171795,-0.21265 -0.396737,-0.42917 -1.027396,-0.98892 -2.35329,-3.03087 -2.815425,-4.33589 -0.194751,-0.54998 -0.253105,-0.86942 -0.254237,-1.39177 -8.65e-4,-0.42036 0.01061,-0.51587 0.134074,-1.11264 0.126289,-0.61039 0.132618,-0.66481 0.09741,-0.83751 -0.04392,-0.2154 -0.493024,-1.12501 -0.534263,-1.08209 -0.01481,0.0154 -0.170965,0.29245 -0.347018,0.61563 l -0.320093,0.58761 0.145328,0.37803 c 0.206673,0.5376 0.264151,0.83625 0.2645,1.37432 5.76e-4,0.7951 -0.124959,1.2987 -0.507939,2.03857 -0.459876,0.88844 -1.559537,2.53083 -2.288557,3.41807 -0.196849,0.23957 -0.346298,0.38703 -0.68326,0.67413 l -0.125617,0.10704 0.08747,0.01 c 0.08304,0.01 0.263175,-0.0463 1.210144,-0.37473 0.6732,-0.23348 0.800407,-0.24748 2.244765,-0.24704 1.012323,2.8e-4 1.343976,0.011 1.715589,0.0554 0.877533,0.10469 1.482249,0.24348 1.85768,0.42635 0.34723,0.16913 0.489289,0.20375 0.516187,0.12579 z m -2.310324,-1.01312 -0.524208,-0.10898 -0.953108,-0.004 c -1.081025,-0.004 -1.601071,0.041 -2.104777,0.18264 -0.03932,0.0111 -0.07148,0.007 -0.07148,-0.01 0,-0.0162 0.129981,-0.1799 0.288848,-0.36377 0.517729,-0.59921 0.75285,-1.02671 1.358104,-2.46928 0.48509,-1.15618 0.532504,-1.24628 0.614278,-1.16737 0.01749,0.0169 0.207162,0.484 0.42152,1.03807 0.428322,1.10715 0.56922,1.44552 0.730902,1.7553 0.151494,0.29027 0.453509,0.71449 0.698547,0.98121 0.114703,0.12485 0.208552,0.23865 0.208552,0.2529 0,0.0422 -0.114743,0.0272 -0.667175,-0.0877 z m 10.627134,-7.73419 c 0.714629,-0.0944 1.205359,-0.23484 1.785541,-0.51091 0.728151,-0.34647 1.392294,-0.82433 2.043364,-1.47021 0.748278,-0.74231 1.250768,-1.47518 1.696839,-2.47479 0.483919,-1.08442 0.710638,-2.16708 0.74064,-3.53675 0.01711,-0.78117 -0.01288,-1.18212 -0.13823,-1.84754 -0.365302,-1.93935 -1.577163,-4.60271 -3.071057,-6.7494 -1.274264,-1.83108 -2.749171,-3.51275 -5.614597,-6.40168 -5.146851,-5.18905 -6.772736,-7.12581 -8.051774,-9.59132 -0.601042,-1.15858 -1.103818,-2.407 -1.287139,-3.196 -0.03775,-0.16246 -0.08755,-0.32036 -0.110687,-0.35087 -0.03874,-0.0511 -0.04719,-0.0458 -0.10722,0.0677 -0.03584,0.0678 -0.167885,0.42571 -0.293438,0.79538 -0.319618,0.94108 -0.585461,1.58045 -0.967758,2.32751 -1.30021,2.54078 -3.477514,5.21589 -7.831098,9.62158 -2.109097,2.13433 -3.214516,3.28998 -3.845221,4.01996 -0.914198,1.05807 -2.228273,2.9307 -3.033134,4.32237 -1.120783,1.93793 -1.759972,3.67443 -2.002892,5.44129 -0.07044,0.5124 -0.09675,1.7426 -0.04853,2.26896 0.200542,2.1885 1.086986,4.10516 2.516694,5.44157 1.038903,0.9711 2.235257,1.55731 3.561894,1.74531 1.397563,0.19805 3.025935,-0.0187 4.598544,-0.61216 1.256519,-0.47417 2.771263,-1.42843 3.65637,-2.30346 0.537638,-0.53151 0.833008,-0.94594 1.314458,-1.84427 0.155298,-0.28977 0.295818,-0.52685 0.312264,-0.52685 0.05946,0 0.336149,0.21829 0.534583,0.42176 0.475725,0.48778 1.108264,1.54976 1.442466,2.42179 0.06629,0.17299 0.124078,0.31093 0.128414,0.30656 0.0043,-0.005 0.09687,-0.21488 0.205633,-0.46778 0.370769,-0.86216 0.602523,-1.28225 0.945258,-1.71345 0.1531,-0.19262 0.877683,-0.98481 0.928455,-1.01509 0.01564,-0.01 0.142582,0.20072 0.282077,0.46679 0.452664,0.86338 0.806937,1.34118 1.452806,1.95939 1.616199,1.54697 4.199773,2.8012 6.20729,3.01342 0.336654,0.0356 1.707565,0.0163 2.049178,-0.0288 z m -1.858559,-0.35624 c -1.160486,-0.13459 -1.756002,-0.30921 -2.912671,-0.85404 -1.462806,-0.68906 -2.355445,-1.26566 -3.155703,-2.03845 -0.816033,-0.78804 -1.197468,-1.45046 -1.409036,-2.44703 -0.09129,-0.43006 -0.162685,-0.57731 -0.273915,-0.56504 -0.117515,0.013 -0.438883,0.25463 -0.749486,0.56359 -0.553826,0.5509 -1.030626,1.18512 -1.38064,1.83647 -0.106356,0.19793 -0.222715,0.38542 -0.258579,0.41666 -0.06411,0.0559 -0.06689,0.0549 -0.16496,-0.0544 -0.05486,-0.0612 -0.195104,-0.27499 -0.311644,-0.47516 -0.534002,-0.9172 -1.274402,-1.81953 -1.748175,-2.13049 -0.199634,-0.13102 -0.277859,-0.14561 -0.349181,-0.0651 -0.02613,0.0295 -0.129569,0.28816 -0.22984,0.57478 -0.354554,1.01348 -0.88025,1.8972 -1.421595,2.38978 -0.530921,0.48309 -1.615226,1.23729 -2.481214,1.72583 -2.163702,1.22063 -5.031485,1.42995 -7.036538,0.51361 -1.256428,-0.57422 -2.348991,-1.716 -3.045746,-3.18296 -0.37168,-0.78253 -0.696577,-1.90619 -0.821473,-2.84106 -0.232019,-1.73672 0.07148,-3.60983 0.889112,-5.48727 0.505289,-1.16025 1.478788,-2.86618 2.414101,-4.23042 1.031764,-1.50491 1.906364,-2.51481 4.445641,-5.13334 3.277364,-3.37967 5.096397,-5.43736 6.640658,-7.5119 0.959601,-1.28912 1.608224,-2.32922 2.352108,-3.77172 0.238832,-0.46313 0.433941,-0.80277 0.491975,-0.85641 l 0.09617,-0.089 v 0.17656 c 0,0.23521 -0.165563,0.95354 -0.318267,1.38085 -0.778587,2.17873 -3.646074,6.40254 -8.034657,11.83505 -0.641058,0.79354 -1.307751,1.60231 -2.331307,2.82811 -0.731548,0.8761 -1.119307,1.37885 -1.660781,2.15333 -1.212895,1.73479 -2.162438,3.43271 -2.554391,4.56763 -0.270211,0.78239 -0.484347,1.65745 -0.592633,2.42176 -0.08273,0.58391 -0.07563,1.71946 0.01427,2.28381 0.292377,1.83539 1.095785,3.4576 2.150166,4.34155 0.711743,0.5967 1.514023,0.94423 2.509846,1.08726 0.472265,0.0678 1.325755,0.0447 1.779131,-0.0482 2.010519,-0.41197 3.748339,-1.90021 5.173248,-4.4303 0.286538,-0.50878 0.571738,-1.10299 0.912238,-1.90062 0.136755,-0.32035 0.268937,-0.6288 0.29374,-0.68546 l 0.0451,-0.10301 0.374931,0.53218 c 0.440267,0.62493 0.615184,0.85274 0.973514,1.26791 0.37074,0.42955 1.150661,1.18022 1.371377,1.31996 l 0.184946,0.11709 0.116215,-0.0595 c 0.145859,-0.0746 0.860875,-0.76349 1.353694,-1.30423 0.345399,-0.37899 0.630291,-0.73065 1.111435,-1.37193 0.102977,-0.13724 0.205052,-0.24953 0.226835,-0.24953 0.04252,0 0.0931,0.0949 0.294922,0.5533 0.764107,1.73557 1.745149,3.24523 2.785738,4.28678 1.328786,1.33002 2.795165,2.01533 4.447828,2.07868 1.589275,0.0609 2.696654,-0.4314 3.708129,-1.64857 0.964998,-1.16124 1.474844,-2.32775 1.680432,-3.84473 0.08663,-0.63925 0.07222,-1.76947 -0.03029,-2.37578 -0.223619,-1.3226 -0.734485,-2.7934 -1.443175,-4.15496 -0.702842,-1.35033 -2.493198,-3.81806 -4.058022,-5.59337 -2.884598,-3.27261 -7.476103,-9.45504 -8.987239,-12.10127 -0.401166,-0.7025 -0.833078,-1.94124 -1.002001,-2.87377 -0.05762,-0.31814 -0.06698,-0.64207 -0.01769,-0.61268 0.04998,0.0298 0.194187,0.32549 0.381018,0.78128 0.443532,1.08201 1.337778,2.57847 2.381441,3.98517 1.113127,1.50033 2.16295,2.66596 5.59244,6.20938 2.578116,2.66376 3.83705,4.0709 5.042856,5.63654 1.908585,2.47813 3.519225,5.69009 4.010571,7.99793 0.100483,0.47199 0.128198,0.66937 0.157597,1.12247 0.143714,2.21523 -0.768492,4.75158 -2.253258,6.26508 -0.440582,0.44911 -1.114026,0.89389 -1.890464,1.24857 -1.229904,0.56182 -2.248418,0.73533 -3.478837,0.59263 z m -21.031877,-1.0575 c -1.648946,-0.18282 -3.006799,-1.11196 -3.448441,-2.35968 -0.174443,-0.49283 -0.315593,-1.15817 -0.295233,-1.39161 0.01334,-0.15292 0.108874,-0.19152 0.138399,-0.056 0.08996,0.41309 0.811101,1.2032 1.413131,1.54828 1.507786,0.86422 2.922873,0.83113 4.540098,-0.10614 0.38782,-0.22477 0.98401,-0.66232 1.296331,-0.95138 1.3167,-1.21869 2.493369,-3.411 2.299332,-4.28401 -0.03505,-0.15767 -0.179374,-0.38972 -0.218759,-0.35172 -0.01052,0.0102 -0.01521,0.18722 -0.01037,0.39347 0.0075,0.32493 -5.76e-4,0.3995 -0.06173,0.55834 -0.09915,0.25793 -0.419016,0.55553 -0.838575,0.78018 -0.374091,0.20031 -0.633347,0.38897 -0.737254,0.53653 -0.04189,0.0595 -0.101698,0.10815 -0.132906,0.10815 -0.0312,0 -0.155188,-0.0822 -0.275517,-0.18254 -0.29351,-0.24487 -0.483989,-0.34098 -0.716139,-0.36129 -0.232751,-0.0204 -0.242552,0.0141 -0.06356,0.22304 0.186886,0.21822 0.240561,0.4437 0.240561,1.01053 0,0.71941 -0.115489,1.05558 -0.547808,1.59453 -0.254528,0.3173 -0.750715,0.78565 -1.01675,0.95971 -0.488284,0.31946 -0.820144,0.41321 -1.469497,0.41513 -1.543152,0.005 -2.774277,-0.79914 -3.118176,-2.03562 -0.09836,-0.35365 -0.09902,-0.97343 -0.0014,-1.32231 0.297428,-1.06309 1.156058,-1.93408 2.12648,-2.15709 0.301021,-0.0692 0.946686,-0.0482 1.231379,0.04 0.409572,0.12686 0.787035,0.36351 1.006203,0.63083 0.155853,0.1901 0.154981,0.26439 -0.007,0.59817 -0.162189,0.33415 -0.28622,0.46435 -0.442359,0.46435 -0.132948,0 -0.181631,-0.0298 -0.5365,-0.32802 -0.314411,-0.26425 -0.419402,-0.30081 -0.777425,-0.2707 -0.517458,0.0435 -0.838603,0.16974 -1.1524,0.45298 -0.458521,0.41387 -0.622286,1.0665 -0.411959,1.64171 0.163989,0.44848 0.859793,1.08986 1.40637,1.29636 0.150953,0.057 0.247743,0.0699 0.533855,0.0709 0.483671,0.002 0.812305,-0.10322 1.23904,-0.39563 0.514332,-0.35244 0.919355,-0.94775 1.050272,-1.54374 0.06475,-0.29476 0.05675,-0.7315 -0.02031,-1.1078 -0.0816,-0.39851 -0.06687,-0.58451 0.08323,-1.05154 0.34367,-1.06927 0.410739,-1.51617 0.387063,-2.57912 -0.02034,-0.9133 -0.09815,-1.40869 -0.332518,-2.11718 -0.186715,-0.56443 -0.487793,-1.12091 -0.720235,-1.33117 -0.09829,-0.089 -0.09841,-0.0882 -0.02123,0.12828 0.0995,0.27905 0.09736,0.53604 -0.0054,0.65133 -0.08643,0.097 -0.154643,0.0806 -0.21718,-0.0522 -0.09874,-0.2096 -0.685245,-0.45436 -1.085972,-0.45318 -0.285521,8.3e-4 -0.436457,0.063 -0.618738,0.25446 -0.13986,0.14697 -0.354091,0.52478 -0.317558,0.56003 0.01147,0.0111 0.110801,-0.0145 0.220764,-0.0566 0.304767,-0.11693 0.503439,-0.14931 0.699109,-0.11394 0.21978,0.0398 0.637588,0.23503 0.825143,0.38567 0.472585,0.3796 0.797003,1.01152 0.934694,1.82064 0.0585,0.34376 0.06519,1.14165 0.01297,1.54809 -0.07364,0.57328 -0.198021,0.99629 -0.292945,0.99629 -0.04193,0 -0.213686,-0.10909 -0.68158,-0.43294 -0.519879,-0.35983 -0.837151,-0.45617 -1.501111,-0.45584 -0.676423,2.8e-4 -1.184676,0.15422 -1.789935,0.54197 -0.470644,0.3015 -1.028968,0.91913 -1.366561,1.51171 -0.260319,0.45694 -0.531705,1.19444 -0.531705,1.44493 0,0.3575 -0.202683,0.006 -0.257464,-0.44636 -0.0486,-0.40141 -0.01824,-1.75238 0.05003,-2.22478 0.171138,-1.18458 0.642187,-2.49678 1.469085,-4.09247 1.041211,-2.00922 2.322085,-3.8239 3.914866,-5.54638 0.354921,-0.38382 0.415758,-0.4375 0.428412,-0.37805 0.0081,0.0381 0.03056,0.29002 0.04989,0.55979 0.07814,1.09043 0.163396,1.57027 0.349244,1.96577 0.154526,0.32884 0.432567,0.70722 0.756291,1.02923 0.744883,0.74093 1.276278,0.97122 2.151185,0.93225 0.921217,-0.041 1.461087,-0.32159 1.787683,-0.92903 0.184665,-0.34346 0.24263,-0.55853 0.216905,-0.80478 -0.03903,-0.37359 -0.04128,-0.35325 0.0402,-0.36438 0.197834,-0.0271 0.646324,0.63965 0.750971,1.1163 0.09362,0.42637 0.03238,1.30013 -0.124509,1.77686 -0.09463,0.28755 -0.262691,0.5071 -0.54856,0.71667 -0.310353,0.22751 -0.845161,0.47085 -1.312552,0.59719 -0.985427,0.26638 -1.213492,0.39104 -1.409929,0.77066 -0.200862,0.38817 -0.194247,0.92792 0.01498,1.22289 0.06493,0.0916 0.378296,0.29872 0.378296,0.25012 0,-0.009 -0.07148,-0.12195 -0.15885,-0.2511 -0.218549,-0.32303 -0.21591,-0.39182 0.02383,-0.6212 0.112878,-0.10801 0.231235,-0.18953 0.309759,-0.21337 0.06989,-0.0213 0.427308,-0.0519 0.794255,-0.0682 1.662388,-0.0738 2.03103,-0.15478 2.463411,-0.54104 0.314349,-0.28081 0.649969,-0.87423 0.796141,-1.40767 0.190283,-0.69441 -0.01212,-1.79486 -0.499082,-2.71345 -0.406717,-0.76721 -0.946336,-1.28415 -1.606539,-1.539 -0.695671,-0.26855 -1.187445,-0.2199 -1.624598,0.1607 -0.104949,0.0914 -0.212392,0.23936 -0.212392,0.29253 0,0.0365 0.15003,0.0124 0.281458,-0.0451 0.373366,-0.16348 0.773119,0.0359 1.000012,0.49864 0.141427,0.28845 0.165249,0.44097 0.102052,0.65334 -0.128749,0.43264 -0.419841,0.77805 -0.806779,0.95734 -0.204826,0.0949 -0.271101,0.10989 -0.541438,0.12245 -0.661184,0.0307 -1.281847,-0.23406 -1.918099,-0.81828 -0.337074,-0.30952 -0.521293,-0.54978 -0.687368,-0.89648 -0.200984,-0.41956 -0.2415,-0.63221 -0.2415,-1.26738 0,-0.61566 0.04737,-0.86471 0.254707,-1.33906 0.343615,-0.78615 1.178312,-1.51672 1.945377,-1.7027 0.163661,-0.0397 0.349884,-0.0516 0.786314,-0.0504 0.690596,0.002 0.902268,0.0465 1.429659,0.3014 1.523691,0.73655 2.851953,2.66825 3.362919,4.89071 0.21103,0.91788 0.69575,4.45057 0.740289,5.39531 0.0225,0.47754 -0.02296,0.68467 -0.245482,1.11771 -0.260956,0.50789 -0.250509,0.71226 0.04849,0.94866 0.168285,0.13306 0.224011,0.22564 0.248915,0.41353 0.0099,0.0743 0.04617,0.16208 0.08091,0.19562 0.122144,0.11785 0.291223,-0.004 0.291223,-0.21021 0,-0.13539 0.09054,-0.29055 0.255314,-0.43749 0.264206,-0.23561 0.270599,-0.43697 0.03024,-0.95204 -0.07168,-0.1536 -0.145305,-0.36537 -0.163612,-0.47061 -0.118329,-0.68006 0.217804,-3.70468 0.610222,-5.49095 0.545076,-2.48118 2.016229,-4.74872 3.514672,-5.41729 0.912936,-0.40734 2.054891,-0.28489 2.980884,0.31963 0.552345,0.36059 1.03646,0.97422 1.174702,1.48898 0.121677,0.45311 0.122035,1.44874 8.63e-4,1.90661 -0.107283,0.40476 -0.472547,1.01034 -0.830579,1.37703 -0.503358,0.51555 -0.990735,0.73516 -1.631481,0.73516 -0.351509,0 -0.628144,-0.0598 -0.808991,-0.17472 -0.209393,-0.13312 -0.520219,-0.47026 -0.629669,-0.68298 -0.09421,-0.18308 -0.10204,-0.22143 -0.100221,-0.49048 0.0023,-0.34439 0.07466,-0.5586 0.258614,-0.76596 0.176701,-0.19919 0.376612,-0.27629 0.717337,-0.27666 0.223231,-2.8e-4 0.282787,-0.01 0.298002,-0.0481 0.02869,-0.0722 -0.13485,-0.21795 -0.369513,-0.32942 -0.194631,-0.0925 -0.225686,-0.0979 -0.556282,-0.0969 -0.311312,8.4e-4 -0.383388,0.012 -0.65,0.10098 -0.447038,0.14908 -0.760672,0.34038 -1.114417,0.67974 -0.466236,0.44728 -0.886718,1.09354 -1.093881,1.68124 -0.118013,0.33481 -0.156162,0.6603 -0.135014,1.15202 0.04299,0.99944 0.299747,1.7433 0.76633,2.22012 0.372058,0.38024 0.713408,0.46394 2.146891,0.52645 0.776454,0.0339 1.031179,0.066 1.206321,0.15222 0.153062,0.0754 0.41396,0.34856 0.41396,0.43351 0,0.0373 -0.04383,0.14274 -0.0974,0.23432 -0.05356,0.0916 -0.08903,0.17459 -0.07881,0.18446 0.01022,0.01 0.05763,0.005 0.105339,-0.0113 0.05758,-0.0194 0.118759,-0.0858 0.181956,-0.19729 0.08864,-0.15646 0.09521,-0.1903 0.09531,-0.48994 0,-0.29238 -0.0082,-0.33832 -0.09102,-0.50111 -0.196534,-0.38654 -0.654388,-0.68895 -1.243223,-0.82114 -0.888443,-0.19946 -1.173508,-0.3137 -1.441007,-0.57752 -0.454783,-0.44851 -0.710793,-1.153 -0.713265,-1.96278 -0.0014,-0.49036 0.06975,-0.82325 0.250193,-1.16899 0.185817,-0.35602 0.545788,-0.6752 0.557237,-0.49406 0.0017,0.0295 0.0054,0.21984 0.0079,0.42297 0.0044,0.3621 0.0069,0.37394 0.125631,0.60583 0.207768,0.40587 0.706764,0.82921 1.14218,0.96903 0.252713,0.0811 0.869653,0.12834 1.223291,0.0936 0.642821,-0.0631 1.070968,-0.28366 1.660442,-0.85511 0.37809,-0.36652 0.667575,-0.76111 0.823486,-1.12247 0.17531,-0.40634 0.222448,-0.70162 0.25429,-1.59296 0.02714,-0.76006 0.04232,-0.90433 0.0951,-0.90433 0.107476,0 1.10977,1.20455 2.129915,2.55971 2.743844,3.64493 3.926249,6.41016 3.834109,8.96663 -0.01933,0.53654 -0.08366,1.03081 -0.153373,1.17843 -0.07563,0.16016 -0.132543,0.0807 -0.219282,-0.30612 -0.117191,-0.5226 -0.31296,-0.94328 -0.692709,-1.48853 -0.64243,-0.92242 -1.500789,-1.59994 -2.212442,-1.74631 -0.111071,-0.0229 -0.402753,-0.0388 -0.698945,-0.0382 -0.589332,9.7e-4 -0.892748,0.0519 -1.244588,0.20863 -0.302516,0.13471 -0.471222,0.24999 -0.790472,0.54016 -0.146374,0.13303 -0.279688,0.24188 -0.296258,0.24188 -0.04359,0 -0.186462,-0.25807 -0.241022,-0.43534 -0.122118,-0.39679 -0.141998,-1.60123 -0.03582,-2.17036 0.0898,-0.48131 0.260596,-0.87472 0.55378,-1.27552 0.333088,-0.45535 0.793381,-0.82604 1.119425,-0.90151 0.279277,-0.0647 0.487333,-9.7e-4 0.879359,0.26803 l 0.198563,0.13639 v -0.19638 c 0,-0.28426 -0.07384,-0.49336 -0.226118,-0.64029 -0.202276,-0.19517 -0.369343,-0.2525 -0.742873,-0.25492 -0.404294,-0.003 -0.595097,0.0631 -0.979115,0.33706 l -0.27883,0.19895 0.0219,-0.30665 c 0.01887,-0.26456 0.01495,-0.30921 -0.02858,-0.32534 -0.102415,-0.0379 -0.359761,0.2341 -0.626289,0.662 -0.423796,0.68038 -0.606445,1.52264 -0.61471,2.83465 -0.0046,0.73981 0.01274,0.85936 0.238169,1.63848 0.264434,0.91383 0.262679,0.90182 0.266341,1.82555 0.0036,0.89692 0.03143,1.1109 0.196428,1.50861 0.252535,0.60867 0.786638,1.08172 1.486991,1.31701 0.228889,0.0769 0.296814,0.0855 0.683061,0.086 0.364249,5.6e-4 0.460023,-0.01 0.635402,-0.0686 0.71723,-0.24053 1.173097,-0.7817 1.275214,-1.51387 0.101842,-0.73018 -0.230018,-1.34252 -0.893218,-1.64814 -0.231488,-0.10667 -0.250561,-0.11015 -0.604386,-0.11015 -0.398673,0 -0.640214,0.0516 -0.820392,0.17546 -0.05587,0.0384 -0.157642,0.10894 -0.226181,0.15681 -0.08997,0.0629 -0.144112,0.0811 -0.194754,0.0656 -0.09888,-0.0303 -0.586904,-0.48943 -0.632088,-0.59469 -0.03264,-0.0761 -0.02654,-0.10832 0.04707,-0.24847 0.122957,-0.23413 0.356517,-0.43415 0.69435,-0.59462 0.448916,-0.21324 0.742114,-0.27711 1.274961,-0.27771 0.560003,-5.5e-4 0.712163,0.0407 1.055458,0.28623 1.22253,0.87464 1.754679,2.0785 1.441043,3.26002 -0.26444,0.99619 -1.208201,1.93834 -2.131146,2.12748 -0.676576,0.13866 -1.778336,-0.089 -2.555494,-0.52789 -0.287777,-0.16255 -0.703359,-0.53356 -0.882523,-0.78788 -0.187715,-0.26645 -0.486858,-0.88238 -0.566219,-1.16581 -0.05712,-0.20405 -0.06701,-0.30305 -0.05405,-0.54099 0.01685,-0.3088 0.07863,-0.51148 0.290479,-0.95279 0.05981,-0.12459 0.101982,-0.23707 0.09373,-0.24996 -0.0082,-0.0129 -0.06229,-0.0235 -0.12007,-0.0235 -0.167444,0 -0.523324,0.19267 -0.791388,0.42845 -0.313692,0.27592 -0.374356,0.2818 -0.48574,0.0471 -0.08751,-0.18447 -0.176107,-0.26293 -0.637148,-0.56441 -0.363866,-0.23794 -0.601964,-0.45695 -0.770837,-0.70906 -0.247221,-0.36908 -0.300326,-0.77368 -0.148999,-1.13518 0.04476,-0.10692 0.07617,-0.19943 0.06981,-0.20557 -0.02132,-0.0206 -0.174158,0.19388 -0.247367,0.34708 -0.06291,0.13167 -0.07201,0.19792 -0.06925,0.50412 0.0038,0.4165 0.07075,0.66461 0.343823,1.27356 0.827562,1.84545 2.204622,3.33378 3.742685,4.0451 0.683206,0.31596 1.25282,0.45832 2.023231,0.50565 0.609512,0.0374 0.943689,0.003 1.293098,-0.13486 0.886899,-0.3489 1.596691,-1.0057 2.132756,-1.97354 l 0.157633,-0.2846 0.0189,0.19537 c 0.05099,0.52689 -0.221724,1.2834 -0.731524,2.0292 -0.411004,0.60127 -0.803212,0.99942 -1.28552,1.30501 -0.522771,0.33122 -0.772105,0.37717 -2.05906,0.37946 -0.985177,0.002 -1.018886,-0.004 -1.732487,-0.27277 -1.478655,-0.55787 -2.463916,-1.38573 -3.595516,-3.0211 -0.806516,-1.16555 -1.411468,-2.33639 -1.86827,-3.61589 -0.244752,-0.68556 -0.306391,-0.83072 -0.376583,-0.88694 -0.07112,-0.0569 -0.126283,-0.008 -0.177583,0.1571 -0.248695,0.80109 -2.41923,3.8246 -2.745628,3.8246 -0.103549,0 -0.53791,-0.45172 -0.958998,-0.99732 -0.503894,-0.65288 -0.7529,-1.01141 -1.500235,-2.16016 -0.345517,-0.53111 -0.640537,-0.96564 -0.655601,-0.96564 -0.03234,0 -0.0675,0.10752 -0.255609,0.7817 -0.256287,0.91852 -0.560612,1.69449 -0.985142,2.51196 -0.897546,1.72828 -2.07112,3.19027 -3.149233,3.92318 -0.906114,0.61599 -2.217552,0.9247 -3.380468,0.79576 z m -0.439461,-3.39745 c -0.265519,-0.0639 -0.752919,-0.50131 -0.93423,-0.83832 -0.09282,-0.17254 -0.102377,-0.21578 -0.102971,-0.46608 -5.76e-4,-0.2464 0.01,-0.2976 0.09905,-0.47893 0.124804,-0.25417 0.277663,-0.41913 0.494288,-0.53342 0.232154,-0.12249 0.537234,-0.12521 0.775127,-0.007 0.177943,0.0885 0.276353,0.20471 0.261069,0.30834 -0.0089,0.0608 -0.02844,0.0671 -0.205997,0.0672 -0.163467,0 -0.209663,0.0123 -0.277663,0.074 -0.104406,0.0947 -0.218212,0.38411 -0.193573,0.49235 0.04497,0.19757 0.405695,0.4605 0.631763,0.4605 0.315305,0 0.740257,-0.44188 0.790895,-0.8224 0.02092,-0.15729 0.08668,-0.23675 0.21663,-0.26183 0.05227,-0.0101 0.170867,-0.0876 0.263549,-0.17212 0.279704,-0.25525 0.347189,-0.20471 0.363265,0.27202 0.0204,0.60498 -0.148954,1.07784 -0.511218,1.4274 -0.227665,0.21966 -0.438314,0.33361 -0.76496,0.41373 -0.268441,0.0659 -0.755189,0.1005 -0.905024,0.0644 z m 21.598421,9.7e-4 c -0.253595,-0.0524 -0.533846,-0.24609 -0.81885,-0.56603 -0.322217,-0.36171 -0.469411,-0.77406 -0.504853,-1.4143 -0.02103,-0.38017 0.0052,-0.43167 0.188196,-0.36949 0.156176,0.0531 0.437404,0.26403 0.596735,0.44766 0.06976,0.0804 0.192394,0.26124 0.272507,0.40187 0.175764,0.30852 0.241378,0.38095 0.387162,0.42738 0.149823,0.0477 0.479695,0.0153 0.638167,-0.0628 0.164714,-0.0811 0.225813,-0.16984 0.225813,-0.32803 0,-0.22641 -0.224539,-0.40937 -0.50238,-0.40937 -0.23813,0 -0.285902,-0.16786 -0.102816,-0.36129 0.1203,-0.12708 0.301338,-0.1689 0.669517,-0.15464 0.227645,0.009 0.329175,0.0267 0.409901,0.0723 0.263832,0.14875 0.529809,0.72543 0.505374,1.09571 -0.02809,0.42544 -0.385354,0.88318 -0.869866,1.11445 -0.242332,0.11567 -0.258657,0.11896 -0.61617,0.12417 -0.201984,0.003 -0.41728,-0.005 -0.478437,-0.0176 z m -10.384884,-8.53591 c -0.04492,-0.0522 -0.09929,-0.32453 -0.09929,-0.49728 0,-0.2265 -0.08967,-0.55637 -0.22211,-0.81708 -0.157496,-0.31005 -0.167398,-0.47048 -0.04362,-0.70685 0.09218,-0.17604 0.422895,-0.63508 0.45754,-0.63508 0.03725,0 0.443615,0.65202 0.4806,0.77114 0.03065,0.0987 0.02086,0.15785 -0.07871,0.4755 -0.12996,0.41457 -0.132968,0.42828 -0.194166,0.88576 -0.06319,0.4723 -0.175721,0.66867 -0.300248,0.52389 z m 0.55204,-2.71754 c -0.01112,-0.0174 -0.03645,-0.15553 -0.05626,-0.30701 -0.169378,-1.2948 0.80753,-3.53792 2.236069,-5.13435 0.331909,-0.3709 0.893641,-0.90188 1.161619,-1.09801 0.626735,-0.4587 1.180578,-0.58385 1.647459,-0.37227 0.503635,0.22823 0.981411,0.94355 0.785856,1.17656 -0.05809,0.0693 -0.08818,0.0745 -0.554474,0.0978 -0.769296,0.0383 -1.128798,0.14148 -1.677924,0.48141 -0.385567,0.23867 -0.679674,0.4842 -1.224439,1.02219 -1.09412,1.0805 -1.748892,2.16648 -2.032825,3.37154 -0.157498,0.66845 -0.226664,0.85337 -0.285079,0.76218 z m -1.108586,-0.098 c -0.02778,-0.0409 -0.113473,-0.30807 -0.190413,-0.59366 -0.224097,-0.83182 -0.498214,-1.42805 -0.985683,-2.14397 -0.334476,-0.49123 -0.684643,-0.89555 -1.182878,-1.3658 -0.64839,-0.61197 -1.135041,-0.96603 -1.641654,-1.19436 -0.428591,-0.19317 -0.602307,-0.2244 -1.121134,-0.20157 -0.525482,0.0231 -0.542037,0.016 -0.50566,-0.21808 0.07519,-0.48381 0.684519,-1.05385 1.207371,-1.12951 0.447502,-0.0647 0.941677,0.23228 1.7956,1.07926 1.478169,1.46615 2.548038,3.32945 2.76634,4.81792 0.05028,0.34277 0.02622,0.9107 -0.04134,0.97589 -0.04553,0.0439 -0.05458,0.0416 -0.100554,-0.0261 z m 0.539639,-1.99299 c -0.0081,-0.0386 -0.02287,-0.27319 -0.03276,-0.52126 -0.03886,-0.97544 -0.210969,-1.87272 -0.827851,-4.31585 -0.477128,-1.88964 -0.597921,-2.53986 -0.639815,-3.44408 -0.05324,-1.14918 0.164451,-2.03288 0.827456,-3.35894 0.341526,-0.68307 0.543745,-1.15083 0.6173,-1.42788 0.01792,-0.0674 0.0494,-0.18471 0.06999,-0.26057 l 0.03745,-0.13795 0.149566,0.41385 c 0.08226,0.22761 0.25367,0.63455 0.380905,0.90432 0.668587,1.41753 0.821343,1.81129 0.977798,2.52044 0.08011,0.36306 0.08653,0.44577 0.08765,1.12752 0.0014,0.96089 -0.02662,1.1346 -0.487406,3.00421 -0.371835,1.50867 -0.675644,3.01345 -0.875772,4.3377 -0.160118,1.05951 -0.23829,1.37783 -0.284498,1.15849 z m -1.168533,-2.31604 c -0.04442,-0.0462 -0.177358,-0.21504 -0.29542,-0.3752 -0.252324,-0.34233 -0.646459,-0.83174 -1.04922,-1.30285 -0.782393,-0.91517 -1.104818,-1.43596 -1.277177,-2.06291 -0.107748,-0.39194 -0.120727,-0.97132 -0.0276,-1.23251 0.153249,-0.42988 0.401451,-0.62339 0.797409,-0.62173 0.490581,0.002 0.8251,0.32108 1.075632,1.02583 0.178525,0.50219 0.321437,1.21687 0.52913,2.64607 0.150266,1.03406 0.27369,1.77124 0.317762,1.89794 0.04165,0.11971 0.02573,0.12544 -0.07051,0.0253 z m 2.498452,-0.084 c 0.01022,-0.0843 0.0683,-0.61814 0.129088,-1.18632 0.129315,-1.20875 0.181642,-1.58881 0.289929,-2.10579 0.203278,-0.97048 0.478228,-1.59142 0.869107,-1.96278 0.225309,-0.21405 0.516805,-0.37033 0.690729,-0.37033 0.263941,0 0.54526,0.30279 0.608892,0.65537 0.04965,0.2751 0.04344,1.0122 -0.01083,1.28591 -0.09181,0.46299 -0.361551,0.93351 -0.943274,1.64537 -1.019934,1.2481 -1.324707,1.64494 -1.542063,2.00791 l -0.110145,0.18393 z m -5.447113,-2.83955 c -0.07863,-0.0505 -0.228746,-0.13245 -0.333589,-0.18193 -0.243238,-0.1148 -0.420011,-0.1168 -0.786531,-0.009 -0.153018,0.0451 -0.287684,0.0727 -0.299263,0.0616 -0.06786,-0.0655 0.466302,-0.87758 0.928802,-1.41212 l 0.315844,-0.36504 0.01997,0.45701 c 0.02129,0.48733 0.07667,0.76638 0.248481,1.25212 0.0533,0.15069 0.09691,0.27829 0.09691,0.28355 0,0.0249 -0.05966,-0.002 -0.190619,-0.0863 z m 8.272901,-0.0405 c 0.04099,-0.15758 0.178366,-1.04834 0.23498,-1.52358 l 0.05603,-0.47035 0.211125,0.29219 c 0.253811,0.35125 0.595228,0.88882 0.741478,1.16745 l 0.106541,0.20299 -0.32399,0.0151 c -0.377781,0.0177 -0.572288,0.0795 -0.857814,0.27271 l -0.190594,0.12899 z m -6.382577,-3.205 c -0.29928,-0.21408 -0.436472,-0.27779 -0.64227,-0.29829 -0.10221,-0.0102 -0.180247,-0.0342 -0.189925,-0.0586 -0.01867,-0.047 0.150071,-0.31881 0.596983,-0.96179 0.310651,-0.44694 0.423735,-0.57875 0.463566,-0.54032 0.01181,0.0114 0.003,0.22676 -0.01965,0.47861 -0.03301,0.36762 -0.03345,0.55036 -0.0023,0.92686 0.05528,0.66659 0.06416,0.6471 -0.206466,0.45352 z m 4.432432,-0.8181 c 2.87e-4,-0.48573 0.01135,-0.89959 0.02458,-0.91971 0.03443,-0.0523 1.023355,1.3075 1.023355,1.40708 0,0.0138 -0.05362,0.0171 -0.11914,0.008 -0.150857,-0.0225 -0.335248,0.0402 -0.626468,0.2127 -0.122861,0.0728 -0.241254,0.14213 -0.263099,0.15408 -0.03138,0.0172 -0.03961,-0.16367 -0.03923,-0.86143 z"
       id="path75"
       inkscape:connector-curvature="0"
       sodipodi:nodetypes="cccccccccccccssccccscccssccccscccccscccccccccccccccccccccccccccccccccccsscccccscccccccccccccccsccccccscccscccccccccccccccccccccccccccccccccsccscccccccccscccccccccccscccscccsccccssccccccccccccccccccccscccscccscccccsccccccccccccccccccccccccscccsscccccccccsccccccccscccccccccscccccccsccccscccccssccccscccscccccccccccccccsccccccccccccccccccscccccccccsccccccsccccccccccccccccsccccccccscccccccsccccccccsccccccccccccccsccscccccccccccccccsccccccccccccccccsscccccccccsccsccccccccscccccscccccsccccsccccccsccccccccccscccccccccccccccscsccccccccccscccscccccccccccccccccccccccsccccc" />
  </g>
</svg>
